<svg xmlns="http://www.w3.org/2000/svg" xmlns:xlink="http://www.w3.org/1999/xlink" width="200" zoomAndPan="magnify" viewBox="0 0 150 74.999997" height="100" preserveAspectRatio="xMidYMid meet" version="1.0"><defs><g/><clipPath id="89c4de3bb5"><path d="M 86 23 L 147.382812 23 L 147.382812 30 L 86 30 Z M 86 23 " clip-rule="nonzero"/></clipPath><clipPath id="603ff8b6ce"><path d="M 86.914062 27.496094 C 87.542969 27.609375 88.160156 27.75 88.789062 27.839844 L 89.257812 27.917969 L 89.492188 27.960938 L 89.726562 27.988281 L 90.667969 28.113281 L 91.609375 28.207031 C 91.765625 28.226562 91.921875 28.234375 92.078125 28.242188 L 92.550781 28.273438 C 92.863281 28.300781 93.179688 28.300781 93.492188 28.308594 C 93.648438 28.3125 93.804688 28.320312 93.964844 28.320312 L 94.433594 28.3125 C 95.6875 28.296875 96.9375 28.203125 98.179688 28.027344 L 98.644531 27.964844 L 99.574219 27.816406 L 100.039062 27.734375 L 100.503906 27.648438 L 100.96875 27.558594 L 101.898438 27.375 C 106.867188 26.359375 111.855469 25.355469 116.890625 24.578125 C 121.921875 23.800781 127.007812 23.257812 132.117188 23.167969 C 132.753906 23.160156 133.394531 23.152344 134.03125 23.152344 C 134.667969 23.15625 135.304688 23.160156 135.945312 23.183594 C 137.21875 23.214844 138.5 23.285156 139.769531 23.417969 C 140.089844 23.453125 140.40625 23.492188 140.726562 23.53125 C 141.042969 23.578125 141.359375 23.621094 141.675781 23.671875 C 141.992188 23.726562 142.304688 23.777344 142.621094 23.84375 L 143.089844 23.9375 C 143.246094 23.96875 143.402344 24.011719 143.558594 24.046875 L 144.023438 24.160156 L 144.484375 24.285156 C 144.796875 24.367188 145.097656 24.46875 145.402344 24.5625 L 145.628906 24.636719 L 145.855469 24.71875 L 146.304688 24.882812 C 146.601562 24.996094 146.894531 25.125 147.1875 25.25 C 144.757812 24.492188 142.242188 24.164062 139.722656 24.074219 C 138.464844 24.023438 137.203125 24.03125 135.941406 24.0625 C 135.3125 24.078125 134.679688 24.097656 134.046875 24.125 L 132.15625 24.21875 C 127.109375 24.503906 122.09375 25.132812 117.089844 25.902344 C 112.089844 26.667969 107.101562 27.582031 102.085938 28.40625 C 100.824219 28.609375 99.554688 28.792969 98.273438 28.898438 C 96.992188 29.011719 95.707031 29.035156 94.417969 28.96875 C 93.136719 28.890625 91.867188 28.730469 90.609375 28.480469 L 89.671875 28.273438 L 89.4375 28.21875 L 89.207031 28.160156 L 88.746094 28.039062 L 88.285156 27.914062 C 88.128906 27.875 87.980469 27.824219 87.828125 27.777344 C 87.523438 27.6875 87.21875 27.59375 86.914062 27.496094 Z M 86.914062 27.496094 " clip-rule="nonzero"/></clipPath><linearGradient x1="306.340976" gradientTransform="matrix(0.101265, 0, 0, 0.101265, 55.893601, 16.322638)" y1="96.342003" x2="901.520913" gradientUnits="userSpaceOnUse" y2="96.342003" id="9aafe3ccc8"><stop stop-opacity="1" stop-color="rgb(100%, 100%, 100%)" offset="0"/><stop stop-opacity="1" stop-color="rgb(99.765015%, 99.765015%, 99.765015%)" offset="0.00390625"/><stop stop-opacity="1" stop-color="rgb(99.530029%, 99.530029%, 99.530029%)" offset="0.0078125"/><stop stop-opacity="1" stop-color="rgb(99.295044%, 99.295044%, 99.295044%)" offset="0.0117187"/><stop stop-opacity="1" stop-color="rgb(99.061584%, 99.061584%, 99.061584%)" offset="0.015625"/><stop stop-opacity="1" stop-color="rgb(98.826599%, 98.826599%, 98.826599%)" offset="0.0195312"/><stop stop-opacity="1" stop-color="rgb(98.59314%, 98.59314%, 98.59314%)" offset="0.0234375"/><stop stop-opacity="1" stop-color="rgb(98.358154%, 98.358154%, 98.358154%)" offset="0.0273437"/><stop stop-opacity="1" stop-color="rgb(98.124695%, 98.124695%, 98.124695%)" offset="0.03125"/><stop stop-opacity="1" stop-color="rgb(97.889709%, 97.889709%, 97.889709%)" offset="0.0351562"/><stop stop-opacity="1" stop-color="rgb(97.65625%, 97.65625%, 97.65625%)" offset="0.0390625"/><stop stop-opacity="1" stop-color="rgb(97.421265%, 97.421265%, 97.421265%)" offset="0.0429688"/><stop stop-opacity="1" stop-color="rgb(97.186279%, 97.186279%, 97.186279%)" offset="0.046875"/><stop stop-opacity="1" stop-color="rgb(96.951294%, 96.951294%, 96.951294%)" offset="0.0507812"/><stop stop-opacity="1" stop-color="rgb(96.717834%, 96.717834%, 96.717834%)" offset="0.0546875"/><stop stop-opacity="1" stop-color="rgb(96.482849%, 96.482849%, 96.482849%)" offset="0.0585938"/><stop stop-opacity="1" stop-color="rgb(96.24939%, 96.24939%, 96.24939%)" offset="0.0625"/><stop stop-opacity="1" stop-color="rgb(96.014404%, 96.014404%, 96.014404%)" offset="0.0664062"/><stop stop-opacity="1" stop-color="rgb(95.780945%, 95.780945%, 95.780945%)" offset="0.0703125"/><stop stop-opacity="1" stop-color="rgb(95.545959%, 95.545959%, 95.545959%)" offset="0.0742188"/><stop stop-opacity="1" stop-color="rgb(95.3125%, 95.3125%, 95.3125%)" offset="0.078125"/><stop stop-opacity="1" stop-color="rgb(95.077515%, 95.077515%, 95.077515%)" offset="0.0820313"/><stop stop-opacity="1" stop-color="rgb(94.842529%, 94.842529%, 94.842529%)" offset="0.0859375"/><stop stop-opacity="1" stop-color="rgb(94.607544%, 94.607544%, 94.607544%)" offset="0.0898437"/><stop stop-opacity="1" stop-color="rgb(94.374084%, 94.374084%, 94.374084%)" offset="0.09375"/><stop stop-opacity="1" stop-color="rgb(94.139099%, 94.139099%, 94.139099%)" offset="0.0976562"/><stop stop-opacity="1" stop-color="rgb(93.90564%, 93.90564%, 93.90564%)" offset="0.101562"/><stop stop-opacity="1" stop-color="rgb(93.670654%, 93.670654%, 93.670654%)" offset="0.105469"/><stop stop-opacity="1" stop-color="rgb(93.437195%, 93.437195%, 93.437195%)" offset="0.109375"/><stop stop-opacity="1" stop-color="rgb(93.202209%, 93.202209%, 93.202209%)" offset="0.113281"/><stop stop-opacity="1" stop-color="rgb(92.96875%, 92.96875%, 92.96875%)" offset="0.117187"/><stop stop-opacity="1" stop-color="rgb(92.733765%, 92.733765%, 92.733765%)" offset="0.121094"/><stop stop-opacity="1" stop-color="rgb(92.498779%, 92.498779%, 92.498779%)" offset="0.125"/><stop stop-opacity="1" stop-color="rgb(92.263794%, 92.263794%, 92.263794%)" offset="0.128906"/><stop stop-opacity="1" stop-color="rgb(92.030334%, 92.030334%, 92.030334%)" offset="0.132812"/><stop stop-opacity="1" stop-color="rgb(91.795349%, 91.795349%, 91.795349%)" offset="0.136719"/><stop stop-opacity="1" stop-color="rgb(91.56189%, 91.56189%, 91.56189%)" offset="0.140625"/><stop stop-opacity="1" stop-color="rgb(91.326904%, 91.326904%, 91.326904%)" offset="0.144531"/><stop stop-opacity="1" stop-color="rgb(91.093445%, 91.093445%, 91.093445%)" offset="0.148438"/><stop stop-opacity="1" stop-color="rgb(90.858459%, 90.858459%, 90.858459%)" offset="0.152344"/><stop stop-opacity="1" stop-color="rgb(90.625%, 90.625%, 90.625%)" offset="0.15625"/><stop stop-opacity="1" stop-color="rgb(90.390015%, 90.390015%, 90.390015%)" offset="0.160156"/><stop stop-opacity="1" stop-color="rgb(90.155029%, 90.155029%, 90.155029%)" offset="0.164063"/><stop stop-opacity="1" stop-color="rgb(89.920044%, 89.920044%, 89.920044%)" offset="0.167969"/><stop stop-opacity="1" stop-color="rgb(89.686584%, 89.686584%, 89.686584%)" offset="0.171875"/><stop stop-opacity="1" stop-color="rgb(89.451599%, 89.451599%, 89.451599%)" offset="0.175781"/><stop stop-opacity="1" stop-color="rgb(89.21814%, 89.21814%, 89.21814%)" offset="0.179687"/><stop stop-opacity="1" stop-color="rgb(88.983154%, 88.983154%, 88.983154%)" offset="0.183594"/><stop stop-opacity="1" stop-color="rgb(88.749695%, 88.749695%, 88.749695%)" offset="0.1875"/><stop stop-opacity="1" stop-color="rgb(88.514709%, 88.514709%, 88.514709%)" offset="0.191406"/><stop stop-opacity="1" stop-color="rgb(88.28125%, 88.28125%, 88.28125%)" offset="0.195312"/><stop stop-opacity="1" stop-color="rgb(88.046265%, 88.046265%, 88.046265%)" offset="0.199219"/><stop stop-opacity="1" stop-color="rgb(87.811279%, 87.811279%, 87.811279%)" offset="0.203125"/><stop stop-opacity="1" stop-color="rgb(87.576294%, 87.576294%, 87.576294%)" offset="0.207031"/><stop stop-opacity="1" stop-color="rgb(87.342834%, 87.342834%, 87.342834%)" offset="0.210937"/><stop stop-opacity="1" stop-color="rgb(87.107849%, 87.107849%, 87.107849%)" offset="0.214844"/><stop stop-opacity="1" stop-color="rgb(86.87439%, 86.87439%, 86.87439%)" offset="0.21875"/><stop stop-opacity="1" stop-color="rgb(86.639404%, 86.639404%, 86.639404%)" offset="0.222656"/><stop stop-opacity="1" stop-color="rgb(86.405945%, 86.405945%, 86.405945%)" offset="0.226562"/><stop stop-opacity="1" stop-color="rgb(86.170959%, 86.170959%, 86.170959%)" offset="0.230469"/><stop stop-opacity="1" stop-color="rgb(85.9375%, 85.9375%, 85.9375%)" offset="0.234375"/><stop stop-opacity="1" stop-color="rgb(85.702515%, 85.702515%, 85.702515%)" offset="0.238281"/><stop stop-opacity="1" stop-color="rgb(85.467529%, 85.467529%, 85.467529%)" offset="0.242187"/><stop stop-opacity="1" stop-color="rgb(85.232544%, 85.232544%, 85.232544%)" offset="0.246094"/><stop stop-opacity="1" stop-color="rgb(84.999084%, 84.999084%, 84.999084%)" offset="0.25"/><stop stop-opacity="1" stop-color="rgb(84.764099%, 84.764099%, 84.764099%)" offset="0.253906"/><stop stop-opacity="1" stop-color="rgb(84.53064%, 84.53064%, 84.53064%)" offset="0.257812"/><stop stop-opacity="1" stop-color="rgb(84.295654%, 84.295654%, 84.295654%)" offset="0.261719"/><stop stop-opacity="1" stop-color="rgb(84.062195%, 84.062195%, 84.062195%)" offset="0.265625"/><stop stop-opacity="1" stop-color="rgb(83.827209%, 83.827209%, 83.827209%)" offset="0.269531"/><stop stop-opacity="1" stop-color="rgb(83.59375%, 83.59375%, 83.59375%)" offset="0.273438"/><stop stop-opacity="1" stop-color="rgb(83.358765%, 83.358765%, 83.358765%)" offset="0.277344"/><stop stop-opacity="1" stop-color="rgb(83.123779%, 83.123779%, 83.123779%)" offset="0.28125"/><stop stop-opacity="1" stop-color="rgb(82.888794%, 82.888794%, 82.888794%)" offset="0.285156"/><stop stop-opacity="1" stop-color="rgb(82.655334%, 82.655334%, 82.655334%)" offset="0.289062"/><stop stop-opacity="1" stop-color="rgb(82.420349%, 82.420349%, 82.420349%)" offset="0.292969"/><stop stop-opacity="1" stop-color="rgb(82.18689%, 82.18689%, 82.18689%)" offset="0.296875"/><stop stop-opacity="1" stop-color="rgb(81.951904%, 81.951904%, 81.951904%)" offset="0.300781"/><stop stop-opacity="1" stop-color="rgb(81.718445%, 81.718445%, 81.718445%)" offset="0.304687"/><stop stop-opacity="1" stop-color="rgb(81.483459%, 81.483459%, 81.483459%)" offset="0.308594"/><stop stop-opacity="1" stop-color="rgb(81.25%, 81.25%, 81.25%)" offset="0.3125"/><stop stop-opacity="1" stop-color="rgb(81.015015%, 81.015015%, 81.015015%)" offset="0.316406"/><stop stop-opacity="1" stop-color="rgb(80.780029%, 80.780029%, 80.780029%)" offset="0.320312"/><stop stop-opacity="1" stop-color="rgb(80.545044%, 80.545044%, 80.545044%)" offset="0.324219"/><stop stop-opacity="1" stop-color="rgb(80.311584%, 80.311584%, 80.311584%)" offset="0.328125"/><stop stop-opacity="1" stop-color="rgb(80.076599%, 80.076599%, 80.076599%)" offset="0.332031"/><stop stop-opacity="1" stop-color="rgb(79.84314%, 79.84314%, 79.84314%)" offset="0.335938"/><stop stop-opacity="1" stop-color="rgb(79.608154%, 79.608154%, 79.608154%)" offset="0.339844"/><stop stop-opacity="1" stop-color="rgb(79.374695%, 79.374695%, 79.374695%)" offset="0.34375"/><stop stop-opacity="1" stop-color="rgb(79.139709%, 79.139709%, 79.139709%)" offset="0.347656"/><stop stop-opacity="1" stop-color="rgb(78.90625%, 78.90625%, 78.90625%)" offset="0.351562"/><stop stop-opacity="1" stop-color="rgb(78.671265%, 78.671265%, 78.671265%)" offset="0.355469"/><stop stop-opacity="1" stop-color="rgb(78.437805%, 78.437805%, 78.437805%)" offset="0.359375"/><stop stop-opacity="1" stop-color="rgb(78.20282%, 78.20282%, 78.20282%)" offset="0.363281"/><stop stop-opacity="1" stop-color="rgb(77.967834%, 77.967834%, 77.967834%)" offset="0.367187"/><stop stop-opacity="1" stop-color="rgb(77.732849%, 77.732849%, 77.732849%)" offset="0.371094"/><stop stop-opacity="1" stop-color="rgb(77.49939%, 77.49939%, 77.49939%)" offset="0.375"/><stop stop-opacity="1" stop-color="rgb(77.264404%, 77.264404%, 77.264404%)" offset="0.378906"/><stop stop-opacity="1" stop-color="rgb(77.030945%, 77.030945%, 77.030945%)" offset="0.382812"/><stop stop-opacity="1" stop-color="rgb(76.795959%, 76.795959%, 76.795959%)" offset="0.386719"/><stop stop-opacity="1" stop-color="rgb(76.5625%, 76.5625%, 76.5625%)" offset="0.390625"/><stop stop-opacity="1" stop-color="rgb(76.327515%, 76.327515%, 76.327515%)" offset="0.394531"/><stop stop-opacity="1" stop-color="rgb(76.094055%, 76.094055%, 76.094055%)" offset="0.398437"/><stop stop-opacity="1" stop-color="rgb(75.85907%, 75.85907%, 75.85907%)" offset="0.402344"/><stop stop-opacity="1" stop-color="rgb(75.624084%, 75.624084%, 75.624084%)" offset="0.40625"/><stop stop-opacity="1" stop-color="rgb(75.389099%, 75.389099%, 75.389099%)" offset="0.410156"/><stop stop-opacity="1" stop-color="rgb(75.15564%, 75.15564%, 75.15564%)" offset="0.414062"/><stop stop-opacity="1" stop-color="rgb(74.920654%, 74.920654%, 74.920654%)" offset="0.417969"/><stop stop-opacity="1" stop-color="rgb(74.687195%, 74.687195%, 74.687195%)" offset="0.421875"/><stop stop-opacity="1" stop-color="rgb(74.452209%, 74.452209%, 74.452209%)" offset="0.425781"/><stop stop-opacity="1" stop-color="rgb(74.21875%, 74.21875%, 74.21875%)" offset="0.429687"/><stop stop-opacity="1" stop-color="rgb(73.983765%, 73.983765%, 73.983765%)" offset="0.433594"/><stop stop-opacity="1" stop-color="rgb(73.750305%, 73.750305%, 73.750305%)" offset="0.4375"/><stop stop-opacity="1" stop-color="rgb(73.51532%, 73.51532%, 73.51532%)" offset="0.441406"/><stop stop-opacity="1" stop-color="rgb(73.280334%, 73.280334%, 73.280334%)" offset="0.445312"/><stop stop-opacity="1" stop-color="rgb(73.045349%, 73.045349%, 73.045349%)" offset="0.449219"/><stop stop-opacity="1" stop-color="rgb(72.81189%, 72.81189%, 72.81189%)" offset="0.453125"/><stop stop-opacity="1" stop-color="rgb(72.576904%, 72.576904%, 72.576904%)" offset="0.457031"/><stop stop-opacity="1" stop-color="rgb(72.343445%, 72.343445%, 72.343445%)" offset="0.460937"/><stop stop-opacity="1" stop-color="rgb(72.108459%, 72.108459%, 72.108459%)" offset="0.464844"/><stop stop-opacity="1" stop-color="rgb(71.875%, 71.875%, 71.875%)" offset="0.46875"/><stop stop-opacity="1" stop-color="rgb(71.640015%, 71.640015%, 71.640015%)" offset="0.472656"/><stop stop-opacity="1" stop-color="rgb(71.406555%, 71.406555%, 71.406555%)" offset="0.476562"/><stop stop-opacity="1" stop-color="rgb(71.17157%, 71.17157%, 71.17157%)" offset="0.480469"/><stop stop-opacity="1" stop-color="rgb(70.936584%, 70.936584%, 70.936584%)" offset="0.484375"/><stop stop-opacity="1" stop-color="rgb(70.701599%, 70.701599%, 70.701599%)" offset="0.488281"/><stop stop-opacity="1" stop-color="rgb(70.46814%, 70.46814%, 70.46814%)" offset="0.492188"/><stop stop-opacity="1" stop-color="rgb(70.233154%, 70.233154%, 70.233154%)" offset="0.496094"/><stop stop-opacity="1" stop-color="rgb(69.999695%, 69.999695%, 69.999695%)" offset="0.5"/><stop stop-opacity="1" stop-color="rgb(69.764709%, 69.764709%, 69.764709%)" offset="0.503906"/><stop stop-opacity="1" stop-color="rgb(69.53125%, 69.53125%, 69.53125%)" offset="0.507812"/><stop stop-opacity="1" stop-color="rgb(69.296265%, 69.296265%, 69.296265%)" offset="0.511719"/><stop stop-opacity="1" stop-color="rgb(69.062805%, 69.062805%, 69.062805%)" offset="0.515625"/><stop stop-opacity="1" stop-color="rgb(68.82782%, 68.82782%, 68.82782%)" offset="0.519531"/><stop stop-opacity="1" stop-color="rgb(68.592834%, 68.592834%, 68.592834%)" offset="0.523438"/><stop stop-opacity="1" stop-color="rgb(68.357849%, 68.357849%, 68.357849%)" offset="0.527344"/><stop stop-opacity="1" stop-color="rgb(68.12439%, 68.12439%, 68.12439%)" offset="0.53125"/><stop stop-opacity="1" stop-color="rgb(67.889404%, 67.889404%, 67.889404%)" offset="0.535156"/><stop stop-opacity="1" stop-color="rgb(67.655945%, 67.655945%, 67.655945%)" offset="0.539062"/><stop stop-opacity="1" stop-color="rgb(67.420959%, 67.420959%, 67.420959%)" offset="0.542969"/><stop stop-opacity="1" stop-color="rgb(67.1875%, 67.1875%, 67.1875%)" offset="0.546875"/><stop stop-opacity="1" stop-color="rgb(66.952515%, 66.952515%, 66.952515%)" offset="0.550781"/><stop stop-opacity="1" stop-color="rgb(66.719055%, 66.719055%, 66.719055%)" offset="0.554688"/><stop stop-opacity="1" stop-color="rgb(66.48407%, 66.48407%, 66.48407%)" offset="0.558594"/><stop stop-opacity="1" stop-color="rgb(66.249084%, 66.249084%, 66.249084%)" offset="0.5625"/><stop stop-opacity="1" stop-color="rgb(66.014099%, 66.014099%, 66.014099%)" offset="0.566406"/><stop stop-opacity="1" stop-color="rgb(65.78064%, 65.78064%, 65.78064%)" offset="0.570312"/><stop stop-opacity="1" stop-color="rgb(65.545654%, 65.545654%, 65.545654%)" offset="0.574219"/><stop stop-opacity="1" stop-color="rgb(65.312195%, 65.312195%, 65.312195%)" offset="0.578125"/><stop stop-opacity="1" stop-color="rgb(65.077209%, 65.077209%, 65.077209%)" offset="0.582031"/><stop stop-opacity="1" stop-color="rgb(64.84375%, 64.84375%, 64.84375%)" offset="0.585938"/><stop stop-opacity="1" stop-color="rgb(64.608765%, 64.608765%, 64.608765%)" offset="0.589844"/><stop stop-opacity="1" stop-color="rgb(64.375305%, 64.375305%, 64.375305%)" offset="0.59375"/><stop stop-opacity="1" stop-color="rgb(64.14032%, 64.14032%, 64.14032%)" offset="0.597656"/><stop stop-opacity="1" stop-color="rgb(63.905334%, 63.905334%, 63.905334%)" offset="0.601562"/><stop stop-opacity="1" stop-color="rgb(63.670349%, 63.670349%, 63.670349%)" offset="0.605469"/><stop stop-opacity="1" stop-color="rgb(63.43689%, 63.43689%, 63.43689%)" offset="0.609375"/><stop stop-opacity="1" stop-color="rgb(63.201904%, 63.201904%, 63.201904%)" offset="0.613281"/><stop stop-opacity="1" stop-color="rgb(62.968445%, 62.968445%, 62.968445%)" offset="0.617188"/><stop stop-opacity="1" stop-color="rgb(62.733459%, 62.733459%, 62.733459%)" offset="0.621094"/><stop stop-opacity="1" stop-color="rgb(62.5%, 62.5%, 62.5%)" offset="0.625"/><stop stop-opacity="1" stop-color="rgb(62.265015%, 62.265015%, 62.265015%)" offset="0.628906"/><stop stop-opacity="1" stop-color="rgb(62.031555%, 62.031555%, 62.031555%)" offset="0.632812"/><stop stop-opacity="1" stop-color="rgb(61.79657%, 61.79657%, 61.79657%)" offset="0.636719"/><stop stop-opacity="1" stop-color="rgb(61.561584%, 61.561584%, 61.561584%)" offset="0.640625"/><stop stop-opacity="1" stop-color="rgb(61.326599%, 61.326599%, 61.326599%)" offset="0.644531"/><stop stop-opacity="1" stop-color="rgb(61.09314%, 61.09314%, 61.09314%)" offset="0.648438"/><stop stop-opacity="1" stop-color="rgb(60.858154%, 60.858154%, 60.858154%)" offset="0.652344"/><stop stop-opacity="1" stop-color="rgb(60.624695%, 60.624695%, 60.624695%)" offset="0.65625"/><stop stop-opacity="1" stop-color="rgb(60.389709%, 60.389709%, 60.389709%)" offset="0.660156"/><stop stop-opacity="1" stop-color="rgb(60.15625%, 60.15625%, 60.15625%)" offset="0.664063"/><stop stop-opacity="1" stop-color="rgb(59.921265%, 59.921265%, 59.921265%)" offset="0.667969"/><stop stop-opacity="1" stop-color="rgb(59.687805%, 59.687805%, 59.687805%)" offset="0.671875"/><stop stop-opacity="1" stop-color="rgb(59.45282%, 59.45282%, 59.45282%)" offset="0.675781"/><stop stop-opacity="1" stop-color="rgb(59.21936%, 59.21936%, 59.21936%)" offset="0.679688"/><stop stop-opacity="1" stop-color="rgb(58.984375%, 58.984375%, 58.984375%)" offset="0.683594"/><stop stop-opacity="1" stop-color="rgb(58.74939%, 58.74939%, 58.74939%)" offset="0.6875"/><stop stop-opacity="1" stop-color="rgb(58.514404%, 58.514404%, 58.514404%)" offset="0.691406"/><stop stop-opacity="1" stop-color="rgb(58.280945%, 58.280945%, 58.280945%)" offset="0.695312"/><stop stop-opacity="1" stop-color="rgb(58.045959%, 58.045959%, 58.045959%)" offset="0.699219"/><stop stop-opacity="1" stop-color="rgb(57.8125%, 57.8125%, 57.8125%)" offset="0.703125"/><stop stop-opacity="1" stop-color="rgb(57.577515%, 57.577515%, 57.577515%)" offset="0.707031"/><stop stop-opacity="1" stop-color="rgb(57.344055%, 57.344055%, 57.344055%)" offset="0.710937"/><stop stop-opacity="1" stop-color="rgb(57.10907%, 57.10907%, 57.10907%)" offset="0.714844"/><stop stop-opacity="1" stop-color="rgb(56.87561%, 56.87561%, 56.87561%)" offset="0.71875"/><stop stop-opacity="1" stop-color="rgb(56.640625%, 56.640625%, 56.640625%)" offset="0.722656"/><stop stop-opacity="1" stop-color="rgb(56.40564%, 56.40564%, 56.40564%)" offset="0.726562"/><stop stop-opacity="1" stop-color="rgb(56.170654%, 56.170654%, 56.170654%)" offset="0.730469"/><stop stop-opacity="1" stop-color="rgb(55.937195%, 55.937195%, 55.937195%)" offset="0.734375"/><stop stop-opacity="1" stop-color="rgb(55.702209%, 55.702209%, 55.702209%)" offset="0.738281"/><stop stop-opacity="1" stop-color="rgb(55.46875%, 55.46875%, 55.46875%)" offset="0.742188"/><stop stop-opacity="1" stop-color="rgb(55.233765%, 55.233765%, 55.233765%)" offset="0.746094"/><stop stop-opacity="1" stop-color="rgb(55.000305%, 55.000305%, 55.000305%)" offset="0.75"/><stop stop-opacity="1" stop-color="rgb(54.76532%, 54.76532%, 54.76532%)" offset="0.753906"/><stop stop-opacity="1" stop-color="rgb(54.53186%, 54.53186%, 54.53186%)" offset="0.757812"/><stop stop-opacity="1" stop-color="rgb(54.296875%, 54.296875%, 54.296875%)" offset="0.761719"/><stop stop-opacity="1" stop-color="rgb(54.06189%, 54.06189%, 54.06189%)" offset="0.765625"/><stop stop-opacity="1" stop-color="rgb(53.826904%, 53.826904%, 53.826904%)" offset="0.769531"/><stop stop-opacity="1" stop-color="rgb(53.593445%, 53.593445%, 53.593445%)" offset="0.773438"/><stop stop-opacity="1" stop-color="rgb(53.358459%, 53.358459%, 53.358459%)" offset="0.777344"/><stop stop-opacity="1" stop-color="rgb(53.125%, 53.125%, 53.125%)" offset="0.78125"/><stop stop-opacity="1" stop-color="rgb(52.890015%, 52.890015%, 52.890015%)" offset="0.785156"/><stop stop-opacity="1" stop-color="rgb(52.656555%, 52.656555%, 52.656555%)" offset="0.789062"/><stop stop-opacity="1" stop-color="rgb(52.42157%, 52.42157%, 52.42157%)" offset="0.792969"/><stop stop-opacity="1" stop-color="rgb(52.18811%, 52.18811%, 52.18811%)" offset="0.796875"/><stop stop-opacity="1" stop-color="rgb(51.953125%, 51.953125%, 51.953125%)" offset="0.800781"/><stop stop-opacity="1" stop-color="rgb(51.71814%, 51.71814%, 51.71814%)" offset="0.804687"/><stop stop-opacity="1" stop-color="rgb(51.483154%, 51.483154%, 51.483154%)" offset="0.808594"/><stop stop-opacity="1" stop-color="rgb(51.249695%, 51.249695%, 51.249695%)" offset="0.8125"/><stop stop-opacity="1" stop-color="rgb(51.014709%, 51.014709%, 51.014709%)" offset="0.816406"/><stop stop-opacity="1" stop-color="rgb(50.78125%, 50.78125%, 50.78125%)" offset="0.820312"/><stop stop-opacity="1" stop-color="rgb(50.546265%, 50.546265%, 50.546265%)" offset="0.824219"/><stop stop-opacity="1" stop-color="rgb(50.312805%, 50.312805%, 50.312805%)" offset="0.828125"/><stop stop-opacity="1" stop-color="rgb(50.07782%, 50.07782%, 50.07782%)" offset="0.832031"/><stop stop-opacity="1" stop-color="rgb(49.84436%, 49.84436%, 49.84436%)" offset="0.835937"/><stop stop-opacity="1" stop-color="rgb(49.609375%, 49.609375%, 49.609375%)" offset="0.839844"/><stop stop-opacity="1" stop-color="rgb(49.37439%, 49.37439%, 49.37439%)" offset="0.84375"/><stop stop-opacity="1" stop-color="rgb(49.139404%, 49.139404%, 49.139404%)" offset="0.847656"/><stop stop-opacity="1" stop-color="rgb(48.905945%, 48.905945%, 48.905945%)" offset="0.851562"/><stop stop-opacity="1" stop-color="rgb(48.670959%, 48.670959%, 48.670959%)" offset="0.855469"/><stop stop-opacity="1" stop-color="rgb(48.4375%, 48.4375%, 48.4375%)" offset="0.859375"/><stop stop-opacity="1" stop-color="rgb(48.202515%, 48.202515%, 48.202515%)" offset="0.863281"/><stop stop-opacity="1" stop-color="rgb(47.969055%, 47.969055%, 47.969055%)" offset="0.867187"/><stop stop-opacity="1" stop-color="rgb(47.73407%, 47.73407%, 47.73407%)" offset="0.871094"/><stop stop-opacity="1" stop-color="rgb(47.50061%, 47.50061%, 47.50061%)" offset="0.875"/><stop stop-opacity="1" stop-color="rgb(47.265625%, 47.265625%, 47.265625%)" offset="0.878906"/><stop stop-opacity="1" stop-color="rgb(47.03064%, 47.03064%, 47.03064%)" offset="0.882812"/><stop stop-opacity="1" stop-color="rgb(46.795654%, 46.795654%, 46.795654%)" offset="0.886719"/><stop stop-opacity="1" stop-color="rgb(46.562195%, 46.562195%, 46.562195%)" offset="0.890625"/><stop stop-opacity="1" stop-color="rgb(46.327209%, 46.327209%, 46.327209%)" offset="0.894531"/><stop stop-opacity="1" stop-color="rgb(46.09375%, 46.09375%, 46.09375%)" offset="0.898438"/><stop stop-opacity="1" stop-color="rgb(45.858765%, 45.858765%, 45.858765%)" offset="0.902344"/><stop stop-opacity="1" stop-color="rgb(45.625305%, 45.625305%, 45.625305%)" offset="0.90625"/><stop stop-opacity="1" stop-color="rgb(45.39032%, 45.39032%, 45.39032%)" offset="0.910156"/><stop stop-opacity="1" stop-color="rgb(45.15686%, 45.15686%, 45.15686%)" offset="0.914062"/><stop stop-opacity="1" stop-color="rgb(44.921875%, 44.921875%, 44.921875%)" offset="0.917969"/><stop stop-opacity="1" stop-color="rgb(44.68689%, 44.68689%, 44.68689%)" offset="0.921875"/><stop stop-opacity="1" stop-color="rgb(44.451904%, 44.451904%, 44.451904%)" offset="0.925781"/><stop stop-opacity="1" stop-color="rgb(44.218445%, 44.218445%, 44.218445%)" offset="0.929688"/><stop stop-opacity="1" stop-color="rgb(43.983459%, 43.983459%, 43.983459%)" offset="0.933594"/><stop stop-opacity="1" stop-color="rgb(43.75%, 43.75%, 43.75%)" offset="0.9375"/><stop stop-opacity="1" stop-color="rgb(43.515015%, 43.515015%, 43.515015%)" offset="0.941406"/><stop stop-opacity="1" stop-color="rgb(43.281555%, 43.281555%, 43.281555%)" offset="0.945312"/><stop stop-opacity="1" stop-color="rgb(43.04657%, 43.04657%, 43.04657%)" offset="0.949219"/><stop stop-opacity="1" stop-color="rgb(42.81311%, 42.81311%, 42.81311%)" offset="0.953125"/><stop stop-opacity="1" stop-color="rgb(42.578125%, 42.578125%, 42.578125%)" offset="0.957031"/><stop stop-opacity="1" stop-color="rgb(42.34314%, 42.34314%, 42.34314%)" offset="0.960938"/><stop stop-opacity="1" stop-color="rgb(42.108154%, 42.108154%, 42.108154%)" offset="0.964844"/><stop stop-opacity="1" stop-color="rgb(41.874695%, 41.874695%, 41.874695%)" offset="0.96875"/><stop stop-opacity="1" stop-color="rgb(41.639709%, 41.639709%, 41.639709%)" offset="0.972656"/><stop stop-opacity="1" stop-color="rgb(41.40625%, 41.40625%, 41.40625%)" offset="0.976563"/><stop stop-opacity="1" stop-color="rgb(41.171265%, 41.171265%, 41.171265%)" offset="0.980469"/><stop stop-opacity="1" stop-color="rgb(40.937805%, 40.937805%, 40.937805%)" offset="0.984375"/><stop stop-opacity="1" stop-color="rgb(40.70282%, 40.70282%, 40.70282%)" offset="0.988281"/><stop stop-opacity="1" stop-color="rgb(40.46936%, 40.46936%, 40.46936%)" offset="0.992188"/><stop stop-opacity="1" stop-color="rgb(40.234375%, 40.234375%, 40.234375%)" offset="0.996094"/><stop stop-opacity="1" stop-color="rgb(40.000916%, 40.000916%, 40.000916%)" offset="1"/></linearGradient><clipPath id="f17781290c"><path d="M 55.882812 16.289062 L 147 16.289062 L 147 35.039062 L 55.882812 35.039062 Z M 55.882812 16.289062 " clip-rule="nonzero"/></clipPath><clipPath id="6b44238e7d"><rect x="0" width="150" y="0" height="29"/></clipPath></defs><g clip-path="url(#89c4de3bb5)"><g clip-path="url(#603ff8b6ce)"><path fill="url(#9aafe3ccc8)" d="M 86.914062 23.152344 L 86.914062 29.035156 L 147.1875 29.035156 L 147.1875 23.152344 Z M 86.914062 23.152344 " fill-rule="nonzero"/></g></g><g clip-path="url(#f17781290c)"><path fill="#004aad" d="M 136.40625 21.3125 C 133.910156 20.5625 131.460938 19.632812 128.960938 18.886719 C 125.3125 17.820312 121.519531 16.917969 117.726562 16.589844 L 117.007812 16.519531 C 116.769531 16.496094 116.53125 16.46875 116.292969 16.457031 C 115.8125 16.425781 115.332031 16.386719 114.851562 16.359375 L 113.40625 16.324219 C 112.921875 16.324219 112.4375 16.339844 111.957031 16.34375 C 110.019531 16.414062 108.101562 16.640625 106.203125 17.019531 C 104.308594 17.398438 102.449219 17.90625 100.625 18.546875 C 98.808594 19.1875 97.027344 19.917969 95.289062 20.738281 C 94.855469 20.945312 94.417969 21.148438 93.992188 21.367188 C 93.566406 21.582031 93.132812 21.792969 92.710938 22.015625 C 92.289062 22.242188 91.863281 22.460938 91.441406 22.6875 L 90.1875 23.371094 C 89.355469 23.824219 88.53125 24.265625 87.691406 24.644531 C 87.273438 24.839844 86.847656 25.015625 86.417969 25.171875 C 85.992188 25.328125 85.5625 25.464844 85.121094 25.578125 L 84.792969 25.660156 L 84.457031 25.730469 C 84.234375 25.78125 84.003906 25.816406 83.777344 25.859375 C 83.320312 25.933594 82.863281 26 82.398438 26.054688 C 81.472656 26.160156 80.53125 26.234375 79.582031 26.3125 C 78.632812 26.386719 77.675781 26.46875 76.714844 26.601562 L 73.890625 27.03125 C 72.949219 27.171875 72.007812 27.316406 71.066406 27.480469 C 70.121094 27.640625 69.179688 27.8125 68.246094 28.019531 C 67.308594 28.226562 66.375 28.457031 65.453125 28.726562 C 64.527344 28.992188 63.617188 29.308594 62.726562 29.667969 C 61.828125 30.03125 60.964844 30.460938 60.132812 30.953125 C 59.296875 31.445312 58.523438 32.023438 57.816406 32.6875 C 57.109375 33.351562 56.511719 34.105469 56.023438 34.945312 C 55.984375 35.015625 55.945312 35.085938 55.90625 35.15625 C 55.878906 35.210938 55.890625 35.25 55.941406 35.28125 C 55.996094 35.308594 56.035156 35.300781 56.066406 35.246094 C 56.109375 35.179688 56.152344 35.113281 56.195312 35.050781 C 56.71875 34.261719 57.339844 33.566406 58.0625 32.960938 C 59.496094 31.753906 61.195312 30.902344 62.960938 30.277344 C 64.722656 29.644531 66.5625 29.210938 68.414062 28.875 C 69.34375 28.710938 70.277344 28.5625 71.210938 28.429688 C 72.148438 28.296875 73.089844 28.179688 74.03125 28.0625 L 76.851562 27.710938 C 77.78125 27.609375 78.71875 27.542969 79.664062 27.484375 C 80.613281 27.425781 81.570312 27.375 82.53125 27.273438 C 83.011719 27.226562 83.496094 27.160156 83.976562 27.089844 C 84.21875 27.046875 84.460938 27.011719 84.703125 26.960938 L 85.0625 26.890625 L 85.425781 26.804688 C 86.390625 26.566406 87.320312 26.238281 88.222656 25.828125 C 89.117188 25.429688 89.972656 24.980469 90.8125 24.53125 L 92.066406 23.855469 C 92.484375 23.632812 92.902344 23.417969 93.320312 23.199219 C 93.738281 22.976562 94.164062 22.773438 94.582031 22.5625 C 95.003906 22.347656 95.429688 22.152344 95.855469 21.949219 C 97.554688 21.144531 99.289062 20.425781 101.058594 19.792969 C 102.824219 19.160156 104.621094 18.652344 106.457031 18.261719 C 108.289062 17.875 110.136719 17.628906 112.007812 17.523438 C 112.472656 17.507812 112.941406 17.488281 113.410156 17.476562 C 116.199219 17.398438 119.007812 17.816406 121.757812 18.332031 C 123.882812 18.734375 126.179688 19.105469 128.144531 20.09375 C 128.464844 20.25 129.328125 20.648438 129.226562 21.085938 C 129.15625 21.375 128.640625 21.445312 128.40625 21.492188 C 124.628906 22.207031 120.730469 22.445312 116.90625 22.855469 C 115.535156 23.003906 114.132812 23.15625 112.78125 23.304688 C 112.78125 23.304688 134.953125 21.804688 146.101562 23.621094 C 143.339844 23.097656 140.085938 22.359375 137.171875 21.535156 C 136.914062 21.460938 136.660156 21.386719 136.40625 21.3125 Z M 136.40625 21.3125 " fill-opacity="1" fill-rule="nonzero"/></g><g transform="matrix(1, 0, 0, 1, 0, 23)"><g clip-path="url(#6b44238e7d)"><g fill="#000000" fill-opacity="1"><g transform="translate(1.369254, 21.275154)"><g><path d="M 22.03125 -9.734375 C 22.03125 -8.585938 21.722656 -7.582031 21.109375 -6.71875 C 20.503906 -5.851562 19.628906 -5.179688 18.484375 -4.703125 C 17.347656 -4.222656 15.972656 -3.984375 14.359375 -3.984375 L 6.21875 -3.984375 L 6.21875 0 L 1.421875 0 L 1.421875 -7.96875 L 14.828125 -7.96875 C 15.578125 -7.96875 16.15625 -8.132812 16.5625 -8.46875 C 16.976562 -8.800781 17.1875 -9.226562 17.1875 -9.75 C 17.1875 -10.289062 16.976562 -10.722656 16.5625 -11.046875 C 16.15625 -11.367188 15.578125 -11.53125 14.828125 -11.53125 L 1.421875 -11.53125 L 4.609375 -15.578125 L 14.390625 -15.578125 C 16.003906 -15.578125 17.375 -15.332031 18.5 -14.84375 C 19.632812 -14.351562 20.503906 -13.671875 21.109375 -12.796875 C 21.722656 -11.921875 22.03125 -10.898438 22.03125 -9.734375 Z M 22.03125 -9.734375 "/></g></g></g><g fill="#000000" fill-opacity="1"><g transform="translate(24.358457, 21.275154)"><g><path d="M 21.28125 -7.9375 C 21.28125 -6.800781 21.046875 -5.753906 20.578125 -4.796875 C 20.109375 -3.835938 19.453125 -2.992188 18.609375 -2.265625 C 17.765625 -1.546875 16.769531 -0.988281 15.625 -0.59375 C 14.488281 -0.195312 13.242188 0 11.890625 0 L 1.46875 0 L 1.46875 -9.703125 L 6.3125 -9.703125 L 6.3125 -4 L 11.890625 -4 C 12.796875 -4 13.59375 -4.15625 14.28125 -4.46875 C 14.96875 -4.78125 15.507812 -5.210938 15.90625 -5.765625 C 16.300781 -6.328125 16.5 -6.984375 16.5 -7.734375 C 16.5 -8.460938 16.296875 -9.113281 15.890625 -9.6875 C 15.492188 -10.257812 14.945312 -10.707031 14.25 -11.03125 C 13.550781 -11.363281 12.765625 -11.53125 11.890625 -11.53125 L 1.46875 -11.53125 L 4.546875 -15.578125 L 11.890625 -15.578125 C 13.265625 -15.578125 14.519531 -15.390625 15.65625 -15.015625 C 16.800781 -14.640625 17.789062 -14.113281 18.625 -13.4375 C 19.457031 -12.769531 20.109375 -11.960938 20.578125 -11.015625 C 21.046875 -10.078125 21.28125 -9.050781 21.28125 -7.9375 Z M 21.28125 -7.9375 "/></g></g></g><g fill="#000000" fill-opacity="1"><g transform="translate(46.60307, 21.275154)"><g><path d="M 6.359375 -15.578125 L 6.359375 0 L 1.53125 0 L 1.53125 -15.578125 Z M 6.359375 -15.578125 "/></g></g></g><g fill="#000000" fill-opacity="1"><g transform="translate(54.491059, 21.275154)"><g><path d="M 10.359375 -4 L 21.28125 -4 L 18.1875 0 L 10.359375 0 C 9.003906 0 7.753906 -0.195312 6.609375 -0.59375 C 5.472656 -0.988281 4.484375 -1.546875 3.640625 -2.265625 C 2.796875 -2.992188 2.140625 -3.835938 1.671875 -4.796875 C 1.210938 -5.753906 0.984375 -6.800781 0.984375 -7.9375 C 0.984375 -9.082031 1.210938 -10.117188 1.671875 -11.046875 C 2.140625 -11.984375 2.796875 -12.789062 3.640625 -13.46875 C 4.484375 -14.144531 5.472656 -14.664062 6.609375 -15.03125 C 7.753906 -15.394531 9.003906 -15.578125 10.359375 -15.578125 L 21.28125 -15.578125 L 18.1875 -11.53125 L 10.359375 -11.53125 C 9.492188 -11.53125 8.710938 -11.367188 8.015625 -11.046875 C 7.328125 -10.722656 6.785156 -10.273438 6.390625 -9.703125 C 5.992188 -9.128906 5.796875 -8.472656 5.796875 -7.734375 C 5.796875 -7.003906 5.992188 -6.351562 6.390625 -5.78125 C 6.785156 -5.21875 7.328125 -4.78125 8.015625 -4.46875 C 8.710938 -4.15625 9.492188 -4 10.359375 -4 Z M 10.359375 -4 "/></g></g></g><g fill="#000000" fill-opacity="1"><g transform="translate(75.967802, 21.275154)"><g><path d="M 26.171875 0 L 8.0625 0 L 10.96875 -4 L 14.875 -4 C 15.34375 -4 15.828125 -4 16.328125 -4 C 16.835938 -4 17.273438 -3.984375 17.640625 -3.953125 C 17.441406 -4.234375 17.191406 -4.585938 16.890625 -5.015625 C 16.597656 -5.441406 16.320312 -5.84375 16.0625 -6.21875 L 13.265625 -10.34375 L 5.953125 0 L 0.25 0 L 10.25 -14.078125 C 10.570312 -14.535156 10.976562 -14.941406 11.46875 -15.296875 C 11.96875 -15.648438 12.597656 -15.828125 13.359375 -15.828125 C 14.085938 -15.828125 14.695312 -15.660156 15.1875 -15.328125 C 15.675781 -14.992188 16.09375 -14.578125 16.4375 -14.078125 Z M 26.171875 0 "/></g></g></g><g fill="#000000" fill-opacity="1"><g transform="translate(102.377459, 21.275154)"><g><path d="M 20.703125 -3.03125 L 23.5625 0 L 17.109375 0 L 13.640625 -4.125 L 6.234375 -4.125 L 6.234375 0 L 1.421875 0 L 1.421875 -7.96875 L 14.96875 -7.96875 C 15.71875 -7.96875 16.347656 -8.125 16.859375 -8.4375 C 17.367188 -8.757812 17.625 -9.179688 17.625 -9.703125 C 17.625 -10.304688 17.382812 -10.757812 16.90625 -11.0625 C 16.4375 -11.375 15.789062 -11.53125 14.96875 -11.53125 L 1.421875 -11.53125 L 4.5625 -15.578125 L 14.578125 -15.578125 C 15.460938 -15.578125 16.375 -15.492188 17.3125 -15.328125 C 18.25 -15.171875 19.113281 -14.882812 19.90625 -14.46875 C 20.695312 -14.0625 21.335938 -13.492188 21.828125 -12.765625 C 22.328125 -12.046875 22.578125 -11.128906 22.578125 -10.015625 C 22.578125 -8.796875 22.21875 -7.734375 21.5 -6.828125 C 20.789062 -5.921875 19.796875 -5.335938 18.515625 -5.078125 C 18.773438 -4.867188 19.070312 -4.609375 19.40625 -4.296875 C 19.738281 -3.992188 20.171875 -3.570312 20.703125 -3.03125 Z M 20.703125 -3.03125 "/></g></g></g><g fill="#000000" fill-opacity="1"><g transform="translate(126.181053, 21.275154)"><g><path d="M 7.421875 -9.359375 L 15.90625 -9.359375 C 17.789062 -9.359375 19.234375 -9.003906 20.234375 -8.296875 C 21.242188 -7.585938 21.75 -6.519531 21.75 -5.09375 C 21.75 -3.5 21.226562 -2.25 20.1875 -1.34375 C 19.144531 -0.445312 17.4375 0 15.0625 0 L 0.5625 0 L 3.65625 -4 L 15.4375 -4 C 16.007812 -4 16.425781 -4.085938 16.6875 -4.265625 C 16.957031 -4.453125 17.09375 -4.742188 17.09375 -5.140625 C 17.09375 -5.890625 16.539062 -6.265625 15.4375 -6.265625 L 6.96875 -6.265625 C 4.957031 -6.265625 3.476562 -6.675781 2.53125 -7.5 C 1.59375 -8.320312 1.125 -9.398438 1.125 -10.734375 C 1.125 -12.203125 1.644531 -13.375 2.6875 -14.25 C 3.738281 -15.132812 5.441406 -15.578125 7.796875 -15.578125 L 21.328125 -15.578125 L 18.234375 -11.53125 L 7.421875 -11.53125 C 6.867188 -11.53125 6.457031 -11.453125 6.1875 -11.296875 C 5.914062 -11.140625 5.78125 -10.859375 5.78125 -10.453125 C 5.78125 -10.066406 5.914062 -9.785156 6.1875 -9.609375 C 6.457031 -9.441406 6.867188 -9.359375 7.421875 -9.359375 Z M 7.421875 -9.359375 "/></g></g></g></g></g></svg>